<svg xmlns="http://www.w3.org/2000/svg" version="1.1" xmlns:xlink="http://www.w3.org/1999/xlink" xmlns:svgjs="http://svgjs.dev/svgjs" width="1500" height="246" viewBox="0 0 1500 246"><g transform="matrix(1,0,0,1,-0.9090909090909918,-0.014649442391331036)"><svg viewBox="0 0 396 65" data-background-color="#0023ff" preserveAspectRatio="xMidYMid meet" height="246" width="1500" xmlns="http://www.w3.org/2000/svg" xmlns:xlink="http://www.w3.org/1999/xlink"><g id="tight-bounds" transform="matrix(1,0,0,1,0.2400000000000091,0.0038707876237253913)"><svg viewBox="0 0 395.52 64.99225842475252" height="64.99225842475252" width="395.52"><g><svg viewBox="0 0 511.61073437277236 84.068408832" height="64.99225842475252" width="395.52"><g transform="matrix(1,0,0,1,116.09073437277236,11.618716416000002)"><svg viewBox="0 0 395.52 60.830976" height="60.830976" width="395.52"><g id="textblocktransform"><svg viewBox="0 0 395.52 60.830976" height="60.830976" width="395.52" id="textblock"><g><svg viewBox="0 0 395.52 60.830976" height="60.830976" width="395.52"><g transform="matrix(1,0,0,1,0,0)"><svg width="395.52" viewBox="0.39 -37.55 244.12 37.55" height="60.830976" data-palette-color="#1ebbd7"><path d="M8.98-35.01L19.68-22.51 30.37-35.01 39.04-35.01 23.97-17.46 38.94 0 30.32 0 19.68-12.4 9.08 0 0.44 0 15.38-17.46 0.39-35.01 8.98-35.01ZM69.97-17.65L69.97-17.65Q69.97-16.33 69.5-14.81 69.04-13.28 68-11.98 66.97-10.67 65.29-9.79 63.62-8.91 61.23-8.91L61.23-8.91 49.78-8.91 49.78-14.94 61.23-14.94Q62.52-14.94 63.23-15.73 63.94-16.53 63.94-17.7L63.94-17.7Q63.94-18.95 63.14-19.65 62.35-20.36 61.23-20.36L61.23-20.36 49.78-20.36Q48.48-20.36 47.78-19.57 47.07-18.77 47.07-17.6L47.07-17.6 47.07-8.74Q47.07-7.47 47.86-6.76 48.65-6.05 49.83-6.05L49.83-6.05 61.23-6.05 61.23 0 49.78 0Q48.46 0 46.93-0.46 45.41-0.93 44.1-1.97 42.8-3 41.92-4.68 41.04-6.35 41.04-8.74L41.04-8.74 41.04-17.65Q41.04-18.97 41.5-20.5 41.97-22.02 43-23.33 44.04-24.63 45.71-25.51 47.39-26.39 49.78-26.39L49.78-26.39 61.23-26.39Q62.55-26.39 64.07-25.93 65.6-25.46 66.9-24.43 68.21-23.39 69.09-21.72 69.97-20.04 69.97-17.65ZM85.83-6.35L85.83 0 83 0Q81.64 0 80.09-0.46 78.54-0.93 77.19-1.99 75.85-3.05 74.97-4.75 74.09-6.45 74.09-8.91L74.09-8.91 74.09-37.55 80.44-37.55 80.44-8.91Q80.44-7.74 81.17-7.04 81.9-6.35 83-6.35L83-6.35 85.83-6.35ZM101.51-6.35L101.51 0 98.67 0Q97.31 0 95.76-0.46 94.21-0.93 92.86-1.99 91.52-3.05 90.64-4.75 89.76-6.45 89.76-8.91L89.76-8.91 89.76-37.55 96.11-37.55 96.11-8.91Q96.11-7.74 96.84-7.04 97.58-6.35 98.67-6.35L98.67-6.35 101.51-6.35ZM141.23-8.91L141.23-7.69Q141.23-6.52 140.82-5.18 140.42-3.83 139.5-2.69 138.59-1.54 137.12-0.77 135.66 0 133.53 0L133.53 0 109.44 0Q108.75 0 108.17-0.24 107.58-0.49 107.16-0.92 106.73-1.34 106.48-1.93 106.24-2.51 106.24-3.2L106.24-3.2 106.24-31.81Q106.24-32.47 106.48-33.06 106.73-33.64 107.16-34.08 107.58-34.52 108.17-34.77 108.75-35.01 109.44-35.01L109.44-35.01 130.68-35.01Q131.85-35.01 133.19-34.59 134.54-34.18 135.7-33.26 136.86-32.35 137.62-30.88 138.39-29.42 138.39-27.29L138.39-27.29 138.39-26.1Q138.39-24.41 137.83-22.47 137.27-20.53 136.03-18.8L136.03-18.8Q137.1-18.14 138.04-17.21 138.98-16.28 139.69-15.06 140.4-13.84 140.81-12.3 141.23-10.77 141.23-8.91L141.23-8.91ZM134.88-7.74L134.88-8.91Q134.88-10.16 134.49-11.15 134.1-12.13 133.39-12.84 132.68-13.55 131.68-13.93 130.68-14.31 129.43-14.31L129.43-14.31 115.13-14.31 115.13-20.7 126.58-20.7Q127.82-20.7 128.82-21.08 129.82-21.46 130.53-22.17 131.24-22.88 131.62-23.86 132-24.85 132-26.1L132-26.1 132-27.29Q132-28.66 130.68-28.66L130.68-28.66 112.59-28.66 112.59-6.35 133.53-6.35Q133.71-6.35 133.95-6.37 134.19-6.4 134.39-6.52 134.58-6.64 134.73-6.93 134.88-7.23 134.88-7.74L134.88-7.74ZM173.28-17.65L173.28-8.74Q173.28-7.42 172.81-5.9 172.35-4.37 171.31-3.06 170.28-1.76 168.6-0.88 166.93 0 164.54 0L164.54 0 153.09 0Q151.77 0 150.24-0.46 148.72-0.93 147.41-1.97 146.11-3 145.23-4.68 144.35-6.35 144.35-8.74L144.35-8.74Q144.35-10.06 144.81-11.6 145.28-13.13 146.31-14.44 147.35-15.75 149.02-16.63 150.7-17.5 153.09-17.5L153.09-17.5 164.54-17.5 164.54-11.45 153.09-11.45Q151.79-11.45 151.09-10.66 150.38-9.86 150.38-8.69L150.38-8.69Q150.38-7.45 151.2-6.75 152.01-6.05 153.14-6.05L153.14-6.05 164.54-6.05Q165.83-6.05 166.54-6.84 167.25-7.62 167.25-8.79L167.25-8.79 167.25-17.65Q167.25-18.9 166.48-19.63 165.71-20.36 164.54-20.36L164.54-20.36 150.6-20.36 150.6-26.39 164.54-26.39Q165.86-26.39 167.38-25.93 168.91-25.46 170.21-24.43 171.52-23.39 172.4-21.72 173.28-20.04 173.28-17.65L173.28-17.65ZM207.94-14.65L207.94 0 201.6 0 201.6-14.65Q201.6-15.89 201.17-16.88 200.74-17.87 200.01-18.58 199.28-19.29 198.29-19.67 197.3-20.04 196.15-20.04L196.15-20.04 185.04-20.04 185.04 0 178.7 0 178.7-23.24Q178.7-23.9 178.94-24.48 179.18-25.05 179.62-25.48 180.06-25.9 180.65-26.15 181.24-26.39 181.89-26.39L181.89-26.39 196.2-26.39Q197.4-26.39 198.73-26.12 200.06-25.85 201.36-25.26 202.67-24.66 203.85-23.74 205.04-22.83 205.95-21.52 206.87-20.21 207.41-18.51 207.94-16.8 207.94-14.65L207.94-14.65ZM229.57-14.4L244.51 0 235.36 0 222.57-12.35Q221.49-13.33 221.56-14.79L221.56-14.79Q221.61-15.48 221.92-16.08 222.22-16.67 222.76-17.09L222.76-17.09 234.36-26.44 244.51-26.44 229.57-14.4ZM219.95-37.55L219.95 0 213.61 0 213.61-37.55 219.95-37.55Z" opacity="1" transform="matrix(1,0,0,1,0,0)" fill="#1ebbd7" class="wordmark-text-0" data-fill-palette-color="primary" id="text-0"></path></svg></g></svg></g></svg></g></svg></g><g><svg viewBox="0 0 101.73000088259636 84.068408832" height="84.068408832" width="101.73000088259636"><g><svg xmlns="http://www.w3.org/2000/svg" xmlns:xlink="http://www.w3.org/1999/xlink" version="1.1" x="0" y="0" viewBox="7.975 14.403 74.05000000000001 61.193999999999996" enable-background="new 0 0 90 90" xml:space="preserve" height="84.068408832" width="101.73000088259636" class="icon-icon-0" data-fill-palette-color="accent" id="icon-0"><rect x="7.975" y="71.898" fill="#1ebbd7" width="74.049" height="3.699" data-fill-palette-color="accent"></rect><rect x="14.035" y="65.732" fill="#1ebbd7" width="61.931" height="3.699" data-fill-palette-color="accent"></rect><g fill="#1ebbd7" data-fill-palette-color="accent"><rect x="19.536" y="35.517" fill="#1ebbd7" width="9.308" height="27.749" data-fill-palette-color="accent"></rect><rect x="33.409" y="35.517" fill="#1ebbd7" width="9.308" height="27.749" data-fill-palette-color="accent"></rect><rect x="47.283" y="35.517" fill="#1ebbd7" width="9.308" height="27.749" data-fill-palette-color="accent"></rect><rect x="61.156" y="35.671" fill="#1ebbd7" width="9.308" height="27.749" data-fill-palette-color="accent"></rect></g><polyline fill="#1ebbd7" points="7.975,33.05 45,14.403 82.025,33.05 " data-fill-palette-color="accent"></polyline></svg></g></svg></g></svg></g><defs></defs></svg><rect width="395.52" height="64.99225842475252" fill="none" stroke="none" visibility="hidden"></rect></g></svg></g></svg>